<svg width="24" height="24" viewBox="0 0 24 24" fill="none" xmlns="http://www.w3.org/2000/svg">
<path fill-rule="evenodd" clip-rule="evenodd" d="M1.25 7C1.25 5.48122 2.48122 4.25 4 4.25H20C21.5188 4.25 22.75 5.48122 22.75 7V9V17C22.75 18.5188 21.5188 19.75 20 19.75H4C2.48122 19.75 1.25 18.5188 1.25 17V9V7ZM4 5.75C3.30964 5.75 2.75 6.30964 2.75 7V8.25H21.25V7C21.25 6.30964 20.6904 5.75 20 5.75H4ZM21.25 9.75H2.75V17C2.75 17.6904 3.30964 18.25 4 18.25H20C20.6904 18.25 21.25 17.6904 21.25 17V9.75ZM13.25 15C13.25 14.5858 13.5858 14.25 14 14.25H18C18.4142 14.25 18.75 14.5858 18.75 15C18.75 15.4142 18.4142 15.75 18 15.75H14C13.5858 15.75 13.25 15.4142 13.25 15Z" fill="none"/>
</svg>
