<svg width="24" height="24" viewBox="0 0 24 24" fill="none" xmlns="http://www.w3.org/2000/svg">
<path fill-rule="evenodd" clip-rule="evenodd" d="M12 2.75C10.2857 2.75 8.75 4.34345 8.75 6.5C8.75 8.65655 10.2857 10.25 12 10.25C13.7143 10.25 15.25 8.65655 15.25 6.5C15.25 4.34345 13.7143 2.75 12 2.75ZM7.25 6.5C7.25 3.68599 9.29604 1.25 12 1.25C14.704 1.25 16.75 3.68599 16.75 6.5C16.75 9.31401 14.704 11.75 12 11.75C9.29604 11.75 7.25 9.31401 7.25 6.5Z" fill="none"/>
<path fill-rule="evenodd" clip-rule="evenodd" d="M5.21859 17.9163C4.87757 18.3506 4.75 18.7228 4.75 19C4.75 19.7242 4.95064 20.0924 5.1925 20.3127C5.46231 20.5584 5.90504 20.7323 6.59303 20.8183C7.27458 20.9035 8.09346 20.8913 9.03128 20.8522C9.25434 20.8429 9.48417 20.8321 9.71899 20.821C10.4492 20.7867 11.2276 20.75 12 20.75C12.7724 20.75 13.5508 20.7867 14.281 20.821C14.5158 20.8321 14.7457 20.8429 14.9687 20.8522C15.9065 20.8913 16.7254 20.9035 17.407 20.8183C18.095 20.7323 18.5377 20.5584 18.8075 20.3127C19.0494 20.0924 19.25 19.7242 19.25 19C19.25 18.7228 19.1224 18.3506 18.7814 17.9163C18.4447 17.4874 17.934 17.0438 17.2689 16.6419C15.9392 15.8382 14.0735 15.25 12 15.25C9.92646 15.25 8.06079 15.8382 6.73109 16.6419C6.06601 17.0438 5.55532 17.4874 5.21859 17.9163ZM5.9552 15.3581C7.52094 14.4118 9.65526 13.75 12 13.75C14.3447 13.75 16.4791 14.4118 18.0448 15.3581C18.8274 15.8312 19.4883 16.3876 19.9612 16.99C20.4299 17.5869 20.75 18.2772 20.75 19C20.75 20.0258 20.4506 20.8451 19.8175 21.4217C19.2123 21.9728 18.405 22.2052 17.593 22.3067C16.7746 22.409 15.8435 22.39 14.9063 22.3509C14.6661 22.3409 14.4252 22.3296 14.1837 22.3182C13.4617 22.2842 12.7338 22.25 12 22.25C11.2662 22.25 10.5383 22.2842 9.81626 22.3182C9.57475 22.3296 9.33391 22.3409 9.09372 22.3509C8.15654 22.39 7.22542 22.409 6.40697 22.3067C5.59496 22.2052 4.78769 21.9728 4.1825 21.4217C3.54936 20.8451 3.25 20.0258 3.25 19C3.25 18.2772 3.57015 17.5869 4.03877 16.99C4.51168 16.3876 5.17257 15.8312 5.9552 15.3581Z" fill="none"/>
</svg>
